<svg xmlns="http://www.w3.org/2000/svg" width="900" height="360" viewBox="0 0 900 360" role="img" aria-labelledby="title desc">
  <title id="title">Reverse proxy traffic flow</title>
  <desc id="desc">A hand-drawn style diagram showing a client reaching backend services through a reverse proxy.</desc>
  <defs>
    <marker id="arrow" viewBox="0 0 12 12" refX="10" refY="6" markerWidth="10" markerHeight="10" orient="auto">
      <path d="M1 1 L11 6 L1 11 L4 6 Z" fill="#1f5f8b"/>
    </marker>
    <filter id="rough">
      <feTurbulence type="fractalNoise" baseFrequency="0.018" numOctaves="2" result="noise"/>
      <feDisplacementMap in="SourceGraphic" in2="noise" scale="1.4"/>
    </filter>
    <style>
      .paper { fill: #fffdf7; }
      .ink { fill: none; stroke: #171614; stroke-width: 2.8; stroke-linecap: round; stroke-linejoin: round; filter: url(#rough); }
      .soft { fill: #fff8df; opacity: .72; }
      .proxy-fill { fill: #e6f4ef; opacity: .85; }
      .server-fill { fill: #e8f0ff; opacity: .86; }
      .muted { fill: #65615b; font: 500 15px ui-sans-serif, system-ui, sans-serif; }
      .title { fill: #171614; font: 800 30px ui-sans-serif, system-ui, sans-serif; }
      .label { fill: #171614; font: 800 22px ui-sans-serif, system-ui, sans-serif; }
      .small { fill: #65615b; font: 600 14px ui-sans-serif, system-ui, sans-serif; }
      .accent { fill: #0f766e; font: 800 15px ui-sans-serif, system-ui, sans-serif; }
      .arrow { fill: none; stroke: #1f5f8b; stroke-width: 3.6; stroke-linecap: round; stroke-linejoin: round; marker-end: url(#arrow); filter: url(#rough); }
      .dash { fill: none; stroke: #9b9488; stroke-width: 2; stroke-linecap: round; stroke-dasharray: 8 9; filter: url(#rough); }
    </style>
  </defs>

  <rect class="paper" width="900" height="360" rx="18"/>
  <path class="ink" d="M28 25 C251 16 636 18 870 26 C885 94 883 260 871 333 C654 345 249 342 30 333 C20 248 20 109 28 25Z"/>

  <text class="title" x="52" y="65">Reverse proxy</text>
  <text class="muted" x="52" y="92">The proxy helps clients reach the right backend service.</text>

  <path class="soft" d="M82 171 C114 164 180 165 205 173 C213 193 213 229 204 246 C171 253 115 252 83 246 C74 224 74 193 82 171Z"/>
  <path class="ink" d="M82 171 C114 164 180 165 205 173 C213 193 213 229 204 246 C171 253 115 252 83 246 C74 224 74 193 82 171Z"/>
  <text class="label" x="115" y="207">Client</text>
  <text class="small" x="108" y="229">browser / app</text>

  <path class="proxy-fill" d="M350 160 C392 153 477 154 510 162 C522 184 522 236 510 253 C470 260 391 260 350 252 C339 230 339 182 350 160Z"/>
  <path class="ink" d="M350 160 C392 153 477 154 510 162 C522 184 522 236 510 253 C470 260 391 260 350 252 C339 230 339 182 350 160Z"/>
  <text class="label" x="384" y="197">Reverse</text>
  <text class="label" x="402" y="224">proxy</text>

  <path class="dash" d="M635 125 C686 117 796 118 846 127 C857 174 857 255 846 291 C789 300 691 300 636 291 C626 244 626 172 635 125Z"/>
  <text class="small" x="680" y="151">private backend</text>

  <path class="server-fill" d="M680 176 C713 170 786 170 815 176 C822 191 821 211 814 222 C779 228 714 228 681 222 C674 207 674 190 680 176Z"/>
  <path class="ink" d="M680 176 C713 170 786 170 815 176 C822 191 821 211 814 222 C779 228 714 228 681 222 C674 207 674 190 680 176Z"/>
  <text class="small" x="717" y="203">API service</text>

  <path class="server-fill" d="M680 236 C713 230 786 230 815 236 C822 251 821 271 814 282 C779 288 714 288 681 282 C674 267 674 250 680 236Z"/>
  <path class="ink" d="M680 236 C713 230 786 230 815 236 C822 251 821 271 814 282 C779 288 714 288 681 282 C674 267 674 250 680 236Z"/>
  <text class="small" x="717" y="263">Web service</text>

  <path class="arrow" d="M213 209 C258 204 303 204 333 207"/>
  <text class="small" x="244" y="188">request</text>

  <path class="arrow" d="M521 191 C575 171 613 176 661 194"/>
  <path class="arrow" d="M521 222 C573 251 616 256 661 258"/>
  <text class="small" x="526" y="151">routes by host, path, or policy</text>

  <text class="accent" x="305" y="312">The client sees one endpoint; backend services stay private.</text>
</svg>
